<?xml version="1.0" encoding="utf-8"?>
<!-- Svg Vector Icons : http://www.onlinewebfonts.com/icon -->
<!DOCTYPE svg PUBLIC "-//W3C//DTD SVG 1.1//EN" "http://www.w3.org/Graphics/SVG/1.1/DTD/svg11.dtd">
<svg version="1.1" xmlns="http://www.w3.org/2000/svg" xmlns:xlink="http://www.w3.org/1999/xlink" x="0px" y="0px" viewBox="0 0 1000 1000" enable-background="new 0 0 1000 1000" xml:space="preserve">
<metadata> Svg Vector Icons : http://www.onlinewebfonts.com/icon </metadata>
<g><g><path d="M929.3,384.1c-0.7-0.8-1.2-1.5-2-2.2L893,348.7c28.5-6.5,59.1-30.3,59.1-54.8c0-28.5-39.6-38.6-73.4-38.6c-35.3,0-39.4,24.2-39.8,41.3l-88.6-85.4c-18-17.8-52.2-31.8-77.7-31.8H500h0H327.4c-25.5,0-59.6,14-77.7,31.8l-88.6,85.4c-0.5-17.1-4.6-41.3-39.8-41.3c-33.8,0-73.4,10.1-73.4,38.6c0,24.5,30.7,48.3,59.2,54.8l-34.3,33.1c-0.8,0.7-1.3,1.5-2,2.2C34,415.5,10,473.7,10,516v125.6c0,30.5,12,58.1,31.4,78.8V769c0,28.5,23.8,51.7,53.2,51.7h64.3c29.3,0,53.1-23.2,53.1-51.7v-12.5h288h0h288V769c0,28.5,23.8,51.7,53.2,51.7h64.3c29.3,0,53.1-23.2,53.1-51.7v-48.7C978,699.7,990,672,990,641.6V516C990,473.7,966,415.5,929.3,384.1z M282.3,249.1c12.5-10.4,34.3-18.3,45.1-18.3H500h0h172.6c10.9,0,32.6,7.9,45.1,18.3l116.2,112.6H500h0H166.1L282.3,249.1z M49.9,497c0-30.9,24.2-56,54.1-56c29.9,0,127.5,57.3,127.5,88.2c0,30.9-97.6,23.8-127.5,23.8C74.1,552.9,49.9,527.9,49.9,497z M212.1,701.5h-10.3h-10.3l-61.1,0.1c-17-5.3-28.9-11.4-37.4-18.1c-4.3-3.3-7.6-6.8-10.1-10.3c-2.6-3.5-4.5-6.9-5.7-10.4c-7.6-21.5,8.1-41.2,8.1-41.2h104.3l69.5,79.8L212.1,701.5L212.1,701.5z M650,701.5H500h0H350.1c-31.3,0-56.6-25.4-56.6-56.6H500h0h206.6C706.6,676.2,681.2,701.5,650,701.5z M663.1,606.3H500h0H336.9c-34,0-61.6-41.9-61.6-93.6H500h0h224.7C724.7,564.4,697.1,606.3,663.1,606.3z M922.9,662.9c-1.2,3.4-3.1,6.9-5.7,10.4c-2.5,3.5-5.8,6.9-10.1,10.3c-8.4,6.6-20.4,12.8-37.4,18.1l-61.1-0.1h-10.3H788h-47.1l69.6-79.8h104.3C914.8,621.7,930.5,641.4,922.9,662.9z M896.1,552.9c-29.8,0-127.4,7.1-127.4-23.8c0-30.9,97.6-88.2,127.4-88.2c29.9,0,54.1,25.1,54.1,56C950.2,527.9,926,552.9,896.1,552.9z"/></g><g></g><g></g><g></g><g></g><g></g><g></g><g></g><g></g><g></g><g></g><g></g><g></g><g></g><g></g><g></g></g>
</svg>