<svg width="50" height="45" viewBox="0 0 50 45" fill="none" xmlns="http://www.w3.org/2000/svg">
<g filter="url(#filter0_i)">
<path d="M44.2222 2.80556C43.6667 1.16667 42.1111 0 40.2778 0H9.72222C7.88889 0 6.36111 1.16667 5.77778 2.80556L0 19.4444V41.6667C0 43.1944 1.25 44.4444 2.77778 44.4444H5.55556C7.08333 44.4444 8.33333 43.1944 8.33333 41.6667V38.8889H41.6667V41.6667C41.6667 43.1944 42.9167 44.4444 44.4444 44.4444H47.2222C48.75 44.4444 50 43.1944 50 41.6667V19.4444L44.2222 2.80556ZM9.72222 30.5556C7.41667 30.5556 5.55556 28.6944 5.55556 26.3889C5.55556 24.0833 7.41667 22.2222 9.72222 22.2222C12.0278 22.2222 13.8889 24.0833 13.8889 26.3889C13.8889 28.6944 12.0278 30.5556 9.72222 30.5556ZM40.2778 30.5556C37.9722 30.5556 36.1111 28.6944 36.1111 26.3889C36.1111 24.0833 37.9722 22.2222 40.2778 22.2222C42.5833 22.2222 44.4444 24.0833 44.4444 26.3889C44.4444 28.6944 42.5833 30.5556 40.2778 30.5556ZM5.55556 16.6667L9.72222 4.16667H40.2778L44.4444 16.6667H5.55556Z" fill="#EF6848"/>
</g>
<defs>
<filter id="filter0_i" x="0" y="0" width="50" height="48.4444" filterUnits="userSpaceOnUse" color-interpolation-filters="sRGB">
<feFlood flood-opacity="0" result="BackgroundImageFix"/>
<feBlend mode="normal" in="SourceGraphic" in2="BackgroundImageFix" result="shape"/>
<feColorMatrix in="SourceAlpha" type="matrix" values="0 0 0 0 0 0 0 0 0 0 0 0 0 0 0 0 0 0 127 0" result="hardAlpha"/>
<feOffset dy="4"/>
<feGaussianBlur stdDeviation="2"/>
<feComposite in2="hardAlpha" operator="arithmetic" k2="-1" k3="1"/>
<feColorMatrix type="matrix" values="0 0 0 0 0 0 0 0 0 0 0 0 0 0 0 0 0 0 0.25 0"/>
<feBlend mode="normal" in2="shape" result="effect1_innerShadow"/>
</filter>
</defs>
</svg>
