<svg width="50" height="50" viewBox="0 0 50 50" fill="none" xmlns="http://www.w3.org/2000/svg">
<g filter="url(#filter0_i)">
<path d="M44.1255 27.4375C44.2219 26.6562 44.2862 25.8438 44.2862 25C44.2862 24.1562 44.2219 23.3438 44.0933 22.5625L49.5256 18.4375C50.0077 18.0625 50.1363 17.375 49.847 16.8438L44.704 8.1875C44.3826 7.625 43.7076 7.4375 43.129 7.625L36.7324 10.125C35.3824 9.125 33.9681 8.3125 32.393 7.6875L31.4287 1.0625C31.3323 0.4375 30.7859 0 30.143 0H19.857C19.2141 0 18.6999 0.4375 18.6034 1.0625L17.6391 7.6875C16.0641 8.3125 14.6176 9.15625 13.2997 10.125L6.90315 7.625C6.32456 7.40625 5.64955 7.625 5.32811 8.1875L0.185132 16.8438C-0.136304 17.4062 -0.00772897 18.0625 0.506569 18.4375L5.93884 22.5625C5.81027 23.3438 5.71383 24.1875 5.71383 25C5.71383 25.8125 5.77812 26.6562 5.9067 27.4375L0.474424 31.5625C-0.00772973 31.9375 -0.136304 32.625 0.152989 33.1562L5.29597 41.8125C5.6174 42.375 6.29242 42.5625 6.871 42.375L13.2676 39.875C14.6176 40.875 16.0319 41.6875 17.607 42.3125L18.5713 48.9375C18.6999 49.5625 19.2141 50 19.857 50H30.143C30.7859 50 31.3323 49.5625 31.3966 48.9375L32.3609 42.3125C33.9359 41.6875 35.3824 40.8438 36.7003 39.875L43.0969 42.375C43.6754 42.5938 44.3505 42.375 44.6719 41.8125L49.8149 33.1562C50.1363 32.5938 50.0077 31.9375 49.4934 31.5625L44.1255 27.4375ZM25 34.375C19.6963 34.375 15.3569 30.1562 15.3569 25C15.3569 19.8438 19.6963 15.625 25 15.625C30.3037 15.625 34.6431 19.8438 34.6431 25C34.6431 30.1562 30.3037 34.375 25 34.375Z" fill="#EF6848"/>
</g>
<defs>
<filter id="filter0_i" x="0" y="0" width="50" height="54" filterUnits="userSpaceOnUse" color-interpolation-filters="sRGB">
<feFlood flood-opacity="0" result="BackgroundImageFix"/>
<feBlend mode="normal" in="SourceGraphic" in2="BackgroundImageFix" result="shape"/>
<feColorMatrix in="SourceAlpha" type="matrix" values="0 0 0 0 0 0 0 0 0 0 0 0 0 0 0 0 0 0 127 0" result="hardAlpha"/>
<feOffset dy="4"/>
<feGaussianBlur stdDeviation="2"/>
<feComposite in2="hardAlpha" operator="arithmetic" k2="-1" k3="1"/>
<feColorMatrix type="matrix" values="0 0 0 0 0 0 0 0 0 0 0 0 0 0 0 0 0 0 0.25 0"/>
<feBlend mode="normal" in2="shape" result="effect1_innerShadow"/>
</filter>
</defs>
</svg>
