<svg width="50" height="50" viewBox="0 0 50 50" fill="none" xmlns="http://www.w3.org/2000/svg">
<path d="M25 0C11.1937 0 0 11.1937 0 25C0 38.8063 11.1937 50 25 50C38.8063 50 50 38.8063 50 25C50 11.1937 38.8063 0 25 0ZM25 6.25C33.1359 6.25 40.0078 11.4906 42.6031 18.75H7.39688C9.99219 11.4906 16.8641 6.25 25 6.25ZM25 28.125C23.2734 28.125 21.875 26.7266 21.875 25C21.875 23.2734 23.2734 21.875 25 21.875C26.7266 21.875 28.125 23.2734 28.125 25C28.125 26.7266 26.7266 28.125 25 28.125ZM6.25 25C14.7891 25 21.7047 33.2281 21.85 43.4328C13.0125 41.9188 6.25 34.2594 6.25 25ZM28.15 43.4328C28.2953 33.2281 35.2109 25 43.75 25C43.75 34.2594 36.9875 41.9188 28.15 43.4328Z" fill="#EF6848"/>
</svg>
